#!OML:ASF F:\VICON\USERDATA\INSTALL\rory3\rory3.ASF
:FULLY-SPECIFIED
:DEGREES
2158
root -3.73818 17.2263 5.52588 -719.51 -152.344 718.906
lowerback 6.64715 -1.46165 -3.83312
upperback -2.58352 -2.37739 -0.683459
thorax -6.3089 -1.04179 1.72082
lowerneck -18.1798 -6.12527 -15.2931
upperneck -18.3429 -7.36633 13.6654
head -1.59992 -4.0853 6.53927
rclavicle 3.64521e-014 -3.97569e-015
rhumerus 95.9966 -28.723 -38.3864
rradius 30.4425
rwrist 28.521
rhand 3.27731 4.68535
rfingers 7.12502
rthumb 28.7255 -23.1253
lclavicle 3.64521e-014 -3.97569e-015
lhumerus 53.03 -19.435 31.4164
lradius 70.9296
lwrist -10.5751
lhand -9.32351 11.1465
lfingers 7.12502
lthumb 16.635 40.4536
rfemur -22.1445 -8.13234 19.7981
rtibia 56.9991
rfoot -22.1773 9.06941
rtoes -12.0757
lfemur -10.3007 -2.97914 -15.0231
ltibia 33.5293
lfoot -22.4424 -12.8522
ltoes -13.9229
2159
root -3.70112 17.2319 5.54136 -719.644 -152.541 718.935
lowerback 6.56345 -1.4641 -3.79293
upperback -2.2861 -2.35763 -0.670914
thorax -5.94814 -1.04267 1.70066
lowerneck -18.0806 -5.92953 -15.2505
upperneck -18.9587 -7.207 13.6491
head -1.82697 -4.04559 6.57141
rclavicle -5.59082e-015 -5.96354e-015
rhumerus 95.1432 -27.7619 -37.5065
rradius 30.4267
rwrist 27.477
rhand 5.84576 4.82698
rfingers 7.12502
rthumb 31.1763 -22.5407
lclavicle -5.59082e-015 -5.96354e-015
lhumerus 50.9788 -20.7618 33.374
lradius 72.0862
lwrist -10.6963
lhand -8.64514 11.3806
lfingers 7.12502
lthumb 17.288 40.6316
rfemur -22.2188 -7.28329 19.4553
rtibia 57.5554
rfoot -22.6891 7.95624
rtoes -12.3199
lfemur -10.1026 -3.04533 -14.8767
ltibia 33.2549
lfoot -22.3131 -12.8996
ltoes -13.5138
2160
root -3.66138 17.2344 5.5569 -719.759 -152.675 718.989
lowerback 6.45441 -1.45481 -3.74208
upperback -1.99494 -2.32204 -0.659845
thorax -5.58209 -1.03646 1.6707
lowerneck -18.7863 -6.09244 -15.5911
upperneck -18.5551 -7.25835 14.0142
head -1.56872 -4.04353 6.70583
rclavicle -1.52816e-014 -9.93923e-015
rhumerus 94.045 -26.8772 -36.4653
rradius 30.6157
rwrist 26.4683
rhand 7.50113 5.18828
rfingers 7.12502
rthumb 32.7526 -21.8638
lclavicle -1.52816e-014 -9.93923e-015
lhumerus 48.8675 -21.9939 35.4486
lradius 73.1987
lwrist -10.5523
lhand -8.5478 11.9356
lfingers 7.12502
lthumb 17.3817 41.1784
rfemur -22.276 -6.51245 19.1492
rtibia 58.0884
rfoot -23.5604 5.97458
rtoes -13.3877
lfemur -9.95434 -3.07031 -14.6654
ltibia 32.9519
lfoot -22.1399 -12.943
ltoes -13.5573
2161
root -3.61461 17.2394 5.56807 -719.901 -152.755 719.052
lowerback 6.47281 -1.44451 -3.76105
upperback -1.78166 -2.30079 -0.637355
thorax -5.3678 -1.03098 1.69904
lowerneck -18.9243 -6.10733 -16.0196
upperneck -18.639 -7.17369 14.4357
head -1.54665 -3.98871 6.92145
rclavicle 1.96859e-014 -4.37326e-015
rhumerus 92.6263 -25.9186 -35.1047
rradius 31.0238
rwrist 25.2291
rhand 8.43194 5.71823
rfingers 7.12502
rthumb 33.6376 -21.1452
lclavicle 1.96859e-014 -4.37326e-015
lhumerus 46.5884 -23.2884 37.8156
lradius 74.0748
lwrist -10.5373
lhand -8.54531 12.298
lfingers 7.12502
lthumb 17.3841 41.5406
rfemur -22.2622 -5.73104 18.8517
rtibia 58.5906
rfoot -24.2989 3.83436
rtoes -13.0715
lfemur -9.768 -2.99514 -14.4065
ltibia 32.6074
lfoot -21.9866 -13.1857
ltoes -13.7222
2162
root -3.56629 17.2495 5.57247 -720.06 -152.803 719.055
lowerback 6.54393 -1.41714 -3.84837
upperback -1.63815 -2.27206 -0.66247
thorax -5.25716 -1.01839 1.71849
lowerneck -18.1164 -5.77542 -14.8969
upperneck -19.7254 -7.21036 13.3357
head -2.09249 -4.11629 6.44876
rclavicle 3.10104e-014 -7.95139e-016
rhumerus 90.5665 -25.0182 -32.9233
rradius 31.7221
rwrist 23.3094
rhand 8.69025 5.79664
rfingers 7.12502
rthumb 33.8831 -21.013
lclavicle 3.10104e-014 -7.95139e-016
lhumerus 44.0991 -24.657 40.3716
lradius 74.8057
lwrist -10.5363
lhand -8.61142 12.3875
lfingers 7.12502
lthumb 17.3205 41.6357
rfemur -22.1315 -4.86858 18.4711
rtibia 59.021
rfoot -24.9568 1.66975
rtoes -11.6802
lfemur -9.48584 -2.99965 -14.2111
ltibia 32.2315
lfoot -21.8865 -13.3727
ltoes -14.0522
2163
root -3.51672 17.2585 5.57231 -720.095 -152.774 719.084
lowerback 6.43886 -1.40707 -3.89291
upperback -1.5137 -2.25753 -0.722594
thorax -5.06867 -1.01688 1.67384
lowerneck -17.5883 -5.63248 -14.8891
upperneck -20.3206 -7.10374 13.5037
head -2.34769 -4.09565 6.55197
rclavicle -2.82088e-014 -5.96354e-015
rhumerus 88.3729 -23.9693 -30.8497
rradius 32.6474
rwrist 21.7372
rhand 7.85832 5.82318
rfingers 7.12502
rthumb 33.0923 -21.1575
lclavicle -2.82088e-014 -5.96354e-015
lhumerus 41.4667 -25.8354 43.1177
lradius 75.507
lwrist -10.2143
lhand -8.48751 12.3858
lfingers 7.12502
lthumb 17.4397 41.6235
rfemur -22.1332 -4.07922 18.1289
rtibia 59.3757
rfoot -25.6234 -0.800922
rtoes -10.5577
lfemur -9.36607 -3.20592 -13.9957
ltibia 31.8529
lfoot -21.7484 -13.4126
ltoes -14.4295
2164
root -3.46604 17.2686 5.57388 -720.075 -152.642 719.155
lowerback 6.32954 -1.39953 -3.87017
upperback -1.36418 -2.23414 -0.709307
thorax -4.85157 -1.01198 1.66635
lowerneck -17.3557 -5.61995 -14.7594
upperneck -20.7474 -7.20284 13.2683
head -2.5199 -4.17066 6.47565
rclavicle -5.83619e-014 -1.86858e-014
rhumerus 86.1057 -22.9519 -28.4602
rradius 33.7393
rwrist 20.1599
rhand 6.00328 6.01484
rfingers 7.12502
rthumb 31.3265 -21.3239
lclavicle -5.83619e-014 -1.86858e-014
lhumerus 38.9093 -26.7161 46.059
lradius 76.1252
lwrist -9.61071
lhand -8.34719 12.7235
lfingers 7.12502
lthumb 17.5748 41.9492
rfemur -22.2392 -3.35324 17.7933
rtibia 59.6238
rfoot -26.0303 -3.26305
rtoes -8.73409
lfemur -9.38398 -3.56227 -13.7548
ltibia 31.4843
lfoot -21.4508 -13.3456
ltoes -14.5958
